

<svg version="1.0" xmlns="http://www.w3.org/2000/svg"
 width="512px" height="512px" viewBox="0 0 1024.000000 1024.000000"
 preserveAspectRatio="xMidYMid meet">
<g transform="translate(0.000000,1024.000000) scale(0.100000,-0.100000)"
fill="#000000" stroke="none">
<path d="M4833 9520 c-851 -63 -1711 -395 -2388 -922 -454 -353 -843 -793
-1128 -1276 -756 -1276 -797 -2900 -108 -4227 160 -307 332 -566 552 -830 107
-128 418 -441 529 -532 650 -533 1351 -857 2137 -987 283 -47 344 -51 698 -51
364 0 469 9 765 61 691 122 1410 447 1968 891 464 370 872 851 1153 1358 284
514 447 1018 526 1620 26 201 26 777 0 985 -66 528 -198 972 -427 1430 -177
354 -382 661 -630 943 -494 561 -1124 994 -1825 1253 -66 25 -131 49 -144 55
-107 45 -549 152 -761 184 -281 43 -681 62 -917 45z m654 -355 c967 -98 1851
-515 2534 -1195 396 -395 680 -819 902 -1346 224 -533 335 -1171 298 -1714
-80 -1162 -571 -2140 -1466 -2916 -226 -196 -595 -435 -885 -572 -945 -448
-2038 -508 -3049 -167 -497 167 -996 457 -1382 801 -553 494 -958 1108 -1178
1786 -93 289 -166 645 -192 946 -15 179 -7 657 15 822 46 352 135 686 270
1020 327 807 928 1514 1666 1960 504 304 1097 508 1676 574 164 19 611 19 791
1z"/>
<path d="M3401 7830 c-256 -68 -456 -257 -543 -515 l-23 -70 -3 -2137 c-2
-1860 0 -2147 13 -2210 42 -209 221 -415 425 -491 131 -49 91 -48 2005 -45
l1800 3 40 22 c72 38 116 106 117 178 1 58 -27 101 -84 128 l-47 22 -1 301 0
300 29 40 c16 22 35 60 41 84 8 32 10 648 8 2161 l-3 2116 -27 39 c-15 21 -44
50 -65 64 l-37 25 -1785 2 c-1736 2 -1788 1 -1860 -17z m3430 -339 l29 -29 0
-1795 0 -1794 -21 -19 c-21 -19 -64 -19 -1718 -20 l-1696 0 -80 -23 c-44 -12
-103 -35 -131 -51 -29 -16 -55 -26 -58 -23 -3 4 -6 763 -6 1688 0 1852 -4
1734 62 1857 59 111 192 206 318 227 31 5 752 9 1663 10 l1609 1 29 -29z m-41
-4386 l0 -395 -1643 0 c-1813 0 -1705 -4 -1810 63 -92 59 -152 147 -177 258
-44 197 111 417 322 458 24 5 778 9 1676 10 l1632 1 0 -395z"/>
<path d="M8210 6400 c-30 -12 -170 -61 -310 -110 -140 -49 -266 -98 -280 -108
-47 -35 -70 -81 -70 -138 0 -42 22 -112 112 -356 61 -167 120 -315 130 -331
29 -41 75 -61 138 -60 42 0 116 22 320 93 359 125 385 138 410 192 11 24 20
54 20 67 0 30 -237 667 -261 702 -41 59 -128 79 -209 49z m21 -347 c6 -21 34
-96 60 -167 27 -71 49 -135 49 -141 0 -15 -326 -129 -346 -121 -8 3 -14 11
-14 17 0 6 -25 79 -56 161 -30 83 -53 155 -51 161 1 5 74 34 161 63 87 29 161
56 164 59 12 12 21 3 33 -32z"/>
<path d="M1868 6150 c-235 -40 -408 -290 -368 -531 40 -234 219 -388 450 -389
147 0 251 42 353 142 102 100 151 249 129 385 -44 264 -294 438 -564 393z
m196 -324 c41 -31 76 -92 76 -133 0 -43 -41 -115 -79 -140 -40 -27 -89 -37
-134 -29 -45 8 -113 68 -127 112 -27 80 9 171 82 208 50 26 136 17 182 -18z"/>
</g>
</svg>
